<?xml version="1.0" encoding="UTF-8"?>
<!DOCTYPE svg PUBLIC "-//W3C//DTD SVG 1.1//EN" "http://www.w3.org/Graphics/SVG/1.1/DTD/svg11.dtd">
<!-- Creator: CorelDRAW -->
<svg xmlns="http://www.w3.org/2000/svg" xml:space="preserve" width="35.0002mm" height="38.3842mm" version="1.1" style="shape-rendering:geometricPrecision; text-rendering:geometricPrecision; image-rendering:optimizeQuality; fill-rule:evenodd; clip-rule:evenodd"
viewBox="0 0 74.35 81.54"
 xmlns:xlink="http://www.w3.org/1999/xlink"
 xmlns:xodm="http://www.corel.com/coreldraw/odm/2003">
 <defs>
  <style type="text/css">
   <![CDATA[
    .fil0 {fill:#FEFEFE} 
    .fil1 {fill:#FEFEFE;fill-rule:nonzero}
   ]]>
  </style>
 </defs>
 <g id="Слой_x0020_1">
  <metadata id="CorelCorpID_0Corel-Layer"/>
  <g id="_2218291535872">
   <polygon class="fil0" points="24.48,0 16.72,0 38.55,42.53 38.57,42.48 60.28,0 52.51,0 38.5,30.26 "/>
   <polygon class="fil0" points="33.04,0.02 44.15,0.02 38.52,12.05 "/>
  </g>
  <g id="_2218291535344">
   <path class="fil0" d="M31.93 62.73l-0.03 -3.77 6.66 -0.03c2.04,0 5.07,0.14 3.97,2.8 -0.23,0.55 -0.65,0.76 -1.4,0.91 -1.46,0.29 -7.55,0.23 -9.21,0.1zm-0.03 -10.8l6.66 -0c4.2,0.01 3.56,3.03 1.35,3.35 -1.94,0.28 -5.77,0.03 -7.99,0.05l-0.02 -3.39zm-4.9 14.49c4.06,0.02 13.4,0.45 16.85,-0.34 4.84,-1.11 4.43,-6.24 2.52,-7.88 -1.2,-1.03 -1.96,-0.67 -3.12,-1.18 0.93,-0.57 1.58,-0.53 2.33,-1.44 1,-1.22 2.03,-6.12 -3.17,-7.12 -1.86,-0.36 -12.63,-0.19 -15.32,-0.18l-0.09 18.13z"/>
   <polygon class="fil0" points="52.12,66.35 57.02,66.43 57.03,58.95 69.43,58.86 69.44,66.42 74.35,66.42 74.34,48.29 69.53,48.28 69.43,54.82 57.06,54.89 57.02,48.32 52.16,48.29 "/>
   <path class="fil0" d="M9.09 66.39l5.8 0.03 9.14 -18.1 -5.38 -0.04c-1.09,1.65 -2.36,4.82 -3.29,6.75 -0.95,1.96 -2.27,5.1 -3.35,6.78 -1.65,-2.64 -4.67,-10 -6.61,-13.51l-5.4 -0.01 9.09 18.1z"/>
  </g>
  <path class="fil1" d="M9.67 81.38l0 -7.22 1.1 0 0 1.02c0.22,-0.35 0.53,-0.64 0.9,-0.85 0.38,-0.22 0.8,-0.32 1.28,-0.32 0.53,0 0.97,0.11 1.31,0.33 0.34,0.22 0.58,0.53 0.72,0.93 0.58,-0.84 1.32,-1.26 2.24,-1.26 0.72,0 1.27,0.2 1.66,0.59 0.39,0.4 0.58,1.01 0.58,1.83l0 4.95 -1.22 0 0 -4.54c0,-0.49 -0.04,-0.84 -0.12,-1.06 -0.08,-0.22 -0.22,-0.39 -0.43,-0.52 -0.21,-0.13 -0.45,-0.2 -0.74,-0.2 -0.51,0 -0.93,0.17 -1.27,0.51 -0.34,0.34 -0.5,0.88 -0.5,1.62l0 4.19 -1.22 0 0 -4.69c0,-0.54 -0.1,-0.95 -0.3,-1.22 -0.2,-0.27 -0.53,-0.41 -0.98,-0.41 -0.34,0 -0.66,0.09 -0.95,0.27 -0.29,0.18 -0.5,0.45 -0.64,0.8 -0.13,0.35 -0.19,0.85 -0.19,1.51l0 3.74 -1.22 0zm16.11 0l0 -1.07c-0.56,0.82 -1.32,1.23 -2.28,1.23 -0.42,0 -0.82,-0.08 -1.19,-0.24 -0.37,-0.16 -0.64,-0.37 -0.82,-0.61 -0.18,-0.25 -0.3,-0.55 -0.38,-0.91 -0.05,-0.24 -0.07,-0.62 -0.07,-1.14l0 -4.47 1.22 0 0 4c0,0.64 0.03,1.07 0.07,1.29 0.08,0.32 0.24,0.57 0.49,0.76 0.25,0.18 0.55,0.28 0.92,0.28 0.37,0 0.71,-0.09 1.03,-0.28 0.32,-0.19 0.55,-0.45 0.68,-0.77 0.13,-0.32 0.2,-0.79 0.2,-1.41l0 -3.86 1.22 0 0 7.22 -1.1 0zm2.34 -2.16l1.21 -0.19c0.07,0.48 0.26,0.86 0.57,1.12 0.31,0.26 0.75,0.39 1.3,0.39 0.56,0 0.98,-0.11 1.25,-0.34 0.27,-0.23 0.41,-0.5 0.41,-0.8 0,-0.28 -0.12,-0.49 -0.37,-0.65 -0.17,-0.11 -0.59,-0.25 -1.25,-0.42 -0.9,-0.22 -1.51,-0.42 -1.86,-0.58 -0.35,-0.17 -0.61,-0.39 -0.79,-0.69 -0.18,-0.29 -0.27,-0.61 -0.27,-0.96 0,-0.32 0.07,-0.62 0.22,-0.89 0.15,-0.27 0.35,-0.5 0.6,-0.68 0.19,-0.14 0.45,-0.26 0.78,-0.35 0.33,-0.1 0.68,-0.15 1.06,-0.15 0.57,0 1.06,0.08 1.49,0.25 0.43,0.16 0.74,0.38 0.95,0.66 0.2,0.28 0.34,0.65 0.42,1.12l-1.2 0.17c-0.05,-0.38 -0.21,-0.67 -0.47,-0.88 -0.26,-0.21 -0.63,-0.32 -1.1,-0.32 -0.56,0 -0.96,0.09 -1.2,0.28 -0.24,0.19 -0.36,0.4 -0.36,0.65 0,0.16 0.05,0.3 0.15,0.43 0.1,0.13 0.26,0.24 0.47,0.32 0.12,0.05 0.48,0.15 1.08,0.31 0.86,0.23 1.47,0.42 1.81,0.57 0.34,0.15 0.61,0.36 0.81,0.64 0.2,0.28 0.29,0.63 0.29,1.05 0,0.41 -0.12,0.79 -0.36,1.15 -0.24,0.36 -0.58,0.64 -1.03,0.83 -0.45,0.2 -0.96,0.29 -1.52,0.29 -0.94,0 -1.65,-0.19 -2.15,-0.58 -0.49,-0.39 -0.8,-0.96 -0.94,-1.73zm7.25 -6.41l0 -1.39 1.22 0 0 1.39 -1.22 0zm0 8.57l0 -7.22 1.22 0 0 7.22 -1.22 0zm7.61 -2.64l1.2 0.17c-0.13,0.82 -0.47,1.47 -1.01,1.93 -0.54,0.47 -1.21,0.7 -1.99,0.7 -0.99,0 -1.78,-0.32 -2.38,-0.97 -0.6,-0.64 -0.9,-1.57 -0.9,-2.77 0,-0.78 0.13,-1.46 0.39,-2.04 0.26,-0.58 0.65,-1.02 1.18,-1.31 0.53,-0.29 1.1,-0.44 1.72,-0.44 0.78,0 1.42,0.2 1.92,0.59 0.5,0.4 0.82,0.96 0.96,1.69l-1.18 0.18c-0.11,-0.48 -0.31,-0.85 -0.6,-1.09 -0.29,-0.24 -0.64,-0.37 -1.04,-0.37 -0.62,0 -1.12,0.22 -1.5,0.66 -0.38,0.44 -0.58,1.14 -0.58,2.09 0,0.97 0.19,1.67 0.56,2.11 0.37,0.44 0.86,0.66 1.45,0.66 0.48,0 0.88,-0.15 1.2,-0.44 0.32,-0.29 0.53,-0.74 0.61,-1.35zm6.01 2.64l0 -6.27 -1.09 0 0 -0.95 1.09 0 0 -0.77c0,-0.48 0.04,-0.84 0.13,-1.08 0.12,-0.32 0.32,-0.57 0.62,-0.77 0.29,-0.2 0.71,-0.29 1.24,-0.29 0.35,0 0.73,0.04 1.14,0.12l-0.18 1.07c-0.26,-0.04 -0.49,-0.07 -0.72,-0.07 -0.37,0 -0.63,0.08 -0.79,0.24 -0.15,0.16 -0.23,0.45 -0.23,0.88l0 0.66 1.41 0 0 0.95 -1.39 0 0 6.27 -1.22 0zm8.31 -2.34l1.27 0.17c-0.2,0.74 -0.57,1.31 -1.1,1.71 -0.54,0.41 -1.22,0.61 -2.06,0.61 -1.05,0 -1.89,-0.32 -2.5,-0.97 -0.62,-0.65 -0.93,-1.56 -0.93,-2.73 0,-1.21 0.31,-2.15 0.93,-2.82 0.62,-0.67 1.43,-1 2.43,-1 0.96,0 1.75,0.33 2.36,0.98 0.61,0.66 0.92,1.58 0.92,2.77 0,0.07 -0,0.18 -0.01,0.32l-5.38 0c0.05,0.79 0.27,1.4 0.67,1.82 0.4,0.42 0.9,0.63 1.5,0.63 0.45,0 0.83,-0.12 1.15,-0.35 0.32,-0.24 0.57,-0.61 0.75,-1.13zm-4.01 -1.96l4.02 0c-0.05,-0.61 -0.21,-1.06 -0.46,-1.37 -0.39,-0.47 -0.89,-0.71 -1.51,-0.71 -0.56,0 -1.03,0.19 -1.41,0.56 -0.38,0.38 -0.59,0.88 -0.63,1.51zm6.14 2.14l1.21 -0.19c0.07,0.48 0.26,0.86 0.57,1.12 0.31,0.26 0.75,0.39 1.3,0.39 0.56,0 0.98,-0.11 1.25,-0.34 0.27,-0.23 0.41,-0.5 0.41,-0.8 0,-0.28 -0.12,-0.49 -0.37,-0.65 -0.17,-0.11 -0.59,-0.25 -1.25,-0.42 -0.9,-0.22 -1.51,-0.42 -1.86,-0.58 -0.35,-0.17 -0.61,-0.39 -0.79,-0.69 -0.18,-0.29 -0.27,-0.61 -0.27,-0.96 0,-0.32 0.07,-0.62 0.22,-0.89 0.15,-0.27 0.35,-0.5 0.6,-0.68 0.19,-0.14 0.45,-0.26 0.78,-0.35 0.33,-0.1 0.68,-0.15 1.06,-0.15 0.57,0 1.06,0.08 1.49,0.25 0.43,0.16 0.74,0.38 0.95,0.66 0.2,0.28 0.34,0.65 0.42,1.12l-1.2 0.17c-0.05,-0.38 -0.21,-0.67 -0.47,-0.88 -0.26,-0.21 -0.63,-0.32 -1.1,-0.32 -0.56,0 -0.96,0.09 -1.2,0.28 -0.24,0.19 -0.36,0.4 -0.36,0.65 0,0.16 0.05,0.3 0.15,0.43 0.1,0.13 0.26,0.24 0.47,0.32 0.12,0.05 0.48,0.15 1.08,0.31 0.86,0.23 1.47,0.42 1.81,0.57 0.34,0.15 0.61,0.36 0.81,0.64 0.2,0.28 0.29,0.63 0.29,1.05 0,0.41 -0.12,0.79 -0.36,1.15 -0.24,0.36 -0.58,0.64 -1.03,0.83 -0.45,0.2 -0.96,0.29 -1.52,0.29 -0.94,0 -1.65,-0.19 -2.15,-0.58 -0.49,-0.39 -0.8,-0.96 -0.94,-1.73zm9.91 1.06l0.17 1.08c-0.34,0.07 -0.65,0.11 -0.92,0.11 -0.44,0 -0.79,-0.07 -1.03,-0.21 -0.24,-0.14 -0.42,-0.32 -0.51,-0.55 -0.1,-0.23 -0.15,-0.71 -0.15,-1.45l0 -4.16 -0.9 0 0 -0.95 0.9 0 0 -1.79 1.22 -0.74 0 2.52 1.22 0 0 0.95 -1.22 0 0 4.23c0,0.35 0.02,0.58 0.07,0.67 0.04,0.1 0.11,0.18 0.21,0.24 0.1,0.06 0.24,0.09 0.42,0.09 0.13,0 0.31,-0.02 0.53,-0.05z"/>
 </g>
</svg>
